# xmcd
#
# Track frame offsets: 
#        150
#        18375
#        37337
#        64825
#        82487
#        109875
#        168225
#        197025
#        208700
#
# Disc length: 2989 seconds
#
# Revision: 0
# Processed by: cddbd v1.5.2PL0 Copyright (c) Steve Scherf et al.
# Submitted via: ExactAudioCopy v0.95b4
#
DISCID=850bab09
DTITLE=Eric Clapton - 1976-11-15 - One Night In Dallas
DYEAR=1976
DGENRE=Blues
TTITLE0=Hello Old Friend
TTITLE1=Sign Language
TTITLE2=Knockin' On Heaven's Door
TTITLE3=One Night
TTITLE4=Can't Find My Way Home
TTITLE5=Blues Power
TTITLE6=Layla
TTITLE7=Drum Solo
TTITLE8=Layla Reprise
EXTD=
EXTT0=
EXTT1=
EXTT2=
EXTT3=
EXTT4=
EXTT5=
EXTT6=
EXTT7=
EXTT8=
PLAYORDER=
